<svg xmlns="http://www.w3.org/2000/svg" viewBox="0 0 900 900"><rect width="900" height="900" fill="#f6f3ee"/><g fill="none" stroke="#1b2430" stroke-width="8" stroke-linecap="round" stroke-linejoin="round"><path d="M360 155c26-24 154-24 180 0l76 52 88 115-78 54-43-58v355H317V318l-43 58-78-54 88-115z"/><path d="M360 155l90 76 90-76-26 109-64-33-64 33z"/><path d="M450 231v194"/><path d="M317 410h266M317 480h266M317 550h266"/><path d="M365 672h170"/><path d="M277 316l-37 26M623 316l37 26"/></g><g fill="#1b2430" font-family="Arial, sans-serif"><text x="80" y="95" font-size="34" font-weight="700">ARCA / SS27</text><text x="80" y="135" font-size="22">Structured performance polo — brand sketch</text><text x="610" y="760" font-size="20">Deep navy</text><text x="610" y="790" font-size="20">Warp-knit mesh</text><text x="610" y="820" font-size="20">Relaxed athletic fit</text></g></svg>